<mxfile host="Electron" modified="2023-10-19T10:23:34.709Z" agent="Mozilla/5.0 (Windows NT 10.0; Win64; x64) AppleWebKit/537.36 (KHTML, like Gecko) draw.io/22.0.2 Chrome/114.0.5735.289 Electron/25.8.4 Safari/537.36" etag="zUhqqG0yUH6Um1tsJkjX" version="22.0.2" type="device">
  <diagram name="page-1" id="nTteX_-L-bd6lsjCAH_5">
    <mxGraphModel dx="863" dy="505" grid="1" gridSize="10" guides="1" tooltips="1" connect="1" arrows="1" fold="1" page="1" pageScale="1" pageWidth="827" pageHeight="1169" math="0" shadow="0">
      <root>
        <mxCell id="0" />
        <mxCell id="1" parent="0" />
        <mxCell id="KHlmch4Pd0K8RJyUCdBD-4" style="edgeStyle=orthogonalEdgeStyle;rounded=0;orthogonalLoop=1;jettySize=auto;html=1;exitX=1;exitY=0.25;exitDx=0;exitDy=0;entryX=0;entryY=0.25;entryDx=0;entryDy=0;" edge="1" parent="1" source="0EIq4OgII-BHYrVc7AHv-1" target="KHlmch4Pd0K8RJyUCdBD-1">
          <mxGeometry relative="1" as="geometry" />
        </mxCell>
        <mxCell id="KHlmch4Pd0K8RJyUCdBD-7" style="edgeStyle=orthogonalEdgeStyle;rounded=0;orthogonalLoop=1;jettySize=auto;html=1;exitX=0.25;exitY=1;exitDx=0;exitDy=0;entryX=0;entryY=0.5;entryDx=0;entryDy=0;" edge="1" parent="1" source="0EIq4OgII-BHYrVc7AHv-1" target="z7vC7oLisWLh9jTTofFt-1">
          <mxGeometry relative="1" as="geometry" />
        </mxCell>
        <mxCell id="0EIq4OgII-BHYrVc7AHv-1" value="Node &quot;A&quot;" style="rounded=0;whiteSpace=wrap;html=1;" parent="1" vertex="1">
          <mxGeometry x="20" y="20" width="120" height="60" as="geometry" />
        </mxCell>
        <mxCell id="z7vC7oLisWLh9jTTofFt-1" value="execute()" style="rounded=1;whiteSpace=wrap;html=1;arcSize=50;" parent="1" vertex="1">
          <mxGeometry x="70" y="100" width="70" height="30" as="geometry" />
        </mxCell>
        <mxCell id="KHlmch4Pd0K8RJyUCdBD-5" style="edgeStyle=orthogonalEdgeStyle;rounded=0;orthogonalLoop=1;jettySize=auto;html=1;exitX=1;exitY=0.25;exitDx=0;exitDy=0;entryX=0;entryY=0.25;entryDx=0;entryDy=0;" edge="1" parent="1" source="KHlmch4Pd0K8RJyUCdBD-1" target="KHlmch4Pd0K8RJyUCdBD-2">
          <mxGeometry relative="1" as="geometry" />
        </mxCell>
        <mxCell id="KHlmch4Pd0K8RJyUCdBD-6" style="edgeStyle=orthogonalEdgeStyle;rounded=0;orthogonalLoop=1;jettySize=auto;html=1;exitX=1;exitY=0.5;exitDx=0;exitDy=0;entryX=0;entryY=0.25;entryDx=0;entryDy=0;curved=1;" edge="1" parent="1" source="KHlmch4Pd0K8RJyUCdBD-1" target="KHlmch4Pd0K8RJyUCdBD-3">
          <mxGeometry relative="1" as="geometry" />
        </mxCell>
        <mxCell id="KHlmch4Pd0K8RJyUCdBD-9" style="edgeStyle=orthogonalEdgeStyle;rounded=0;orthogonalLoop=1;jettySize=auto;html=1;exitX=0.25;exitY=1;exitDx=0;exitDy=0;entryX=0;entryY=0.5;entryDx=0;entryDy=0;" edge="1" parent="1" source="KHlmch4Pd0K8RJyUCdBD-1" target="KHlmch4Pd0K8RJyUCdBD-8">
          <mxGeometry relative="1" as="geometry" />
        </mxCell>
        <mxCell id="KHlmch4Pd0K8RJyUCdBD-1" value="Node &quot;B&quot;" style="rounded=0;whiteSpace=wrap;html=1;" vertex="1" parent="1">
          <mxGeometry x="200" y="20" width="120" height="60" as="geometry" />
        </mxCell>
        <mxCell id="KHlmch4Pd0K8RJyUCdBD-11" style="edgeStyle=orthogonalEdgeStyle;rounded=0;orthogonalLoop=1;jettySize=auto;html=1;exitX=0.25;exitY=1;exitDx=0;exitDy=0;entryX=0;entryY=0.5;entryDx=0;entryDy=0;" edge="1" parent="1" source="KHlmch4Pd0K8RJyUCdBD-2" target="KHlmch4Pd0K8RJyUCdBD-10">
          <mxGeometry relative="1" as="geometry" />
        </mxCell>
        <mxCell id="KHlmch4Pd0K8RJyUCdBD-2" value="Node &quot;C&quot;" style="rounded=0;whiteSpace=wrap;html=1;" vertex="1" parent="1">
          <mxGeometry x="410" y="20" width="120" height="60" as="geometry" />
        </mxCell>
        <mxCell id="KHlmch4Pd0K8RJyUCdBD-13" style="edgeStyle=orthogonalEdgeStyle;rounded=0;orthogonalLoop=1;jettySize=auto;html=1;exitX=0.25;exitY=1;exitDx=0;exitDy=0;entryX=0;entryY=0.5;entryDx=0;entryDy=0;" edge="1" parent="1" source="KHlmch4Pd0K8RJyUCdBD-3" target="KHlmch4Pd0K8RJyUCdBD-12">
          <mxGeometry relative="1" as="geometry" />
        </mxCell>
        <mxCell id="KHlmch4Pd0K8RJyUCdBD-3" value="Node &quot;D&quot;" style="rounded=0;whiteSpace=wrap;html=1;" vertex="1" parent="1">
          <mxGeometry x="410" y="150" width="120" height="60" as="geometry" />
        </mxCell>
        <mxCell id="KHlmch4Pd0K8RJyUCdBD-8" value="execute()" style="rounded=1;whiteSpace=wrap;html=1;arcSize=50;" vertex="1" parent="1">
          <mxGeometry x="250" y="100" width="70" height="30" as="geometry" />
        </mxCell>
        <mxCell id="KHlmch4Pd0K8RJyUCdBD-10" value="execute()" style="rounded=1;whiteSpace=wrap;html=1;arcSize=50;" vertex="1" parent="1">
          <mxGeometry x="460" y="100" width="70" height="30" as="geometry" />
        </mxCell>
        <mxCell id="KHlmch4Pd0K8RJyUCdBD-12" value="execute()" style="rounded=1;whiteSpace=wrap;html=1;arcSize=50;" vertex="1" parent="1">
          <mxGeometry x="460" y="230" width="70" height="30" as="geometry" />
        </mxCell>
        <mxCell id="KHlmch4Pd0K8RJyUCdBD-14" value="do something and pass control to &quot;B&quot;" style="shape=note;whiteSpace=wrap;html=1;backgroundOutline=1;darkOpacity=0.05;size=10;fillColor=#fff2cc;strokeColor=#d6b656;" vertex="1" parent="1">
          <mxGeometry x="20" y="124" width="125" height="36" as="geometry" />
        </mxCell>
        <mxCell id="KHlmch4Pd0K8RJyUCdBD-17" style="edgeStyle=orthogonalEdgeStyle;rounded=0;orthogonalLoop=1;jettySize=auto;html=1;exitX=0.25;exitY=1;exitDx=0;exitDy=0;entryX=0;entryY=0.5;entryDx=0;entryDy=0;" edge="1" parent="1" source="KHlmch4Pd0K8RJyUCdBD-15" target="KHlmch4Pd0K8RJyUCdBD-16">
          <mxGeometry relative="1" as="geometry" />
        </mxCell>
        <mxCell id="KHlmch4Pd0K8RJyUCdBD-15" value="ControlFlowEngine" style="rounded=0;whiteSpace=wrap;html=1;" vertex="1" parent="1">
          <mxGeometry x="20" y="200" width="120" height="60" as="geometry" />
        </mxCell>
        <mxCell id="KHlmch4Pd0K8RJyUCdBD-18" style="edgeStyle=orthogonalEdgeStyle;rounded=0;orthogonalLoop=1;jettySize=auto;html=1;exitX=1;exitY=0.5;exitDx=0;exitDy=0;entryX=1;entryY=0.5;entryDx=0;entryDy=0;curved=1;dashed=1;" edge="1" parent="1" source="KHlmch4Pd0K8RJyUCdBD-16" target="z7vC7oLisWLh9jTTofFt-1">
          <mxGeometry relative="1" as="geometry">
            <Array as="points">
              <mxPoint x="180" y="295" />
              <mxPoint x="180" y="115" />
            </Array>
          </mxGeometry>
        </mxCell>
        <mxCell id="KHlmch4Pd0K8RJyUCdBD-16" value="execute &quot;A&quot;" style="rounded=1;whiteSpace=wrap;html=1;arcSize=50;" vertex="1" parent="1">
          <mxGeometry x="70" y="280" width="70" height="30" as="geometry" />
        </mxCell>
        <mxCell id="KHlmch4Pd0K8RJyUCdBD-19" value="Start graph execution" style="shape=note;whiteSpace=wrap;html=1;backgroundOutline=1;darkOpacity=0.05;size=10;fillColor=#fff2cc;strokeColor=#d6b656;" vertex="1" parent="1">
          <mxGeometry x="91" y="303" width="145" height="26" as="geometry" />
        </mxCell>
        <mxCell id="KHlmch4Pd0K8RJyUCdBD-20" value="can pass control to &quot;C&quot;, &quot;D&quot;, or both" style="shape=note;whiteSpace=wrap;html=1;backgroundOutline=1;darkOpacity=0.05;size=10;fillColor=#fff2cc;strokeColor=#d6b656;" vertex="1" parent="1">
          <mxGeometry x="189" y="124" width="125" height="36" as="geometry" />
        </mxCell>
        <mxCell id="KHlmch4Pd0K8RJyUCdBD-21" value="do something even if there are no outgoing nodes" style="shape=note;whiteSpace=wrap;html=1;backgroundOutline=1;darkOpacity=0.05;size=10;fillColor=#fff2cc;strokeColor=#d6b656;" vertex="1" parent="1">
          <mxGeometry x="350" y="253" width="161" height="43" as="geometry" />
        </mxCell>
      </root>
    </mxGraphModel>
  </diagram>
</mxfile>
